<svg id="Layer_1" data-name="Layer 1" xmlns="http://www.w3.org/2000/svg" viewBox="0 0 600 600"><defs><style>.cls-1{fill:none;}.cls-2{fill:#2d2d2d;}.cls-3{fill:#abff5a;}</style></defs><rect class="cls-1" width="600" height="600"/><path class="cls-2" d="M313.36,489.91c-5.17-4-10.36-8-15.5-12q-50.58-39.72-101.16-79.46a121.73,121.73,0,0,0-54.47-24.19c-5.07-.91-7-3.08-7.92-8.17a350.73,350.73,0,0,1-5.3-82.68c1-16.1,3.7-32.1,6.09-48.08.33-2.25,3-5.63,5-5.95,26.12-4.22,47.54-17.33,67.78-33.59,34.19-27.47,68.94-54.23,103.46-81.28a4.59,4.59,0,0,1,2.4-.91c-35.84,57.55-49.15,120.94-49.3,187.68C264.3,368.21,277.94,431.59,313.36,489.91Z"/><path class="cls-2" d="M104.84,230.33c-10.49,47.82-9,94.09-.58,141.3a65.22,65.22,0,0,1-25.15-1.88c-20-5.56-35.66-21-34.6-45.27.68-15.57.6-31.22,0-46.8-1-26.43,18.35-41,37.06-45.05C88.71,231.08,96.18,231.14,104.84,230.33Z"/><path class="cls-2" d="M49.73,388.11a44.5,44.5,0,0,1,4.42,1.73,95.29,95.29,0,0,0,46.05,11.23c5.2-.06,7.2,1.36,7.09,6.88-.32,16.36,0,32.72-.14,49.08-.1,15.37-8.17,23.46-23.4,23.63-4.87,0-9.75.2-14.6-.13-11.37-.79-19.8-8.54-20-19.77C48.66,437.4,49,414,49,390.66A11.07,11.07,0,0,1,49.73,388.11Z"/><path class="cls-3" d="M426.66,67.36c-71.15,0-128.85,104.15-128.85,232.65s57.7,232.63,128.85,232.63S555.54,428.49,555.54,300,497.84,67.36,426.66,67.36ZM417,102.89q0,40.2,0,80.43v.34c0,27-.12,53.91-.09,80.85v.43c0,26.8.09,53.59.09,80.42V509.43c-41.92-10.67-90.3-80.68-94.06-191.61C318.92,199.05,367.19,113.5,417,99.14ZM530.61,329.23c-17.73-.08-35.45.23-53.17-.37a65.65,65.65,0,0,0-7.38.2c-1.31.09-2.74.11-4.45.11v5.15q0,78.36,0,156.64c0,3-.51,4.38-2,5.55a88.4,88.4,0,0,1-24,13.23,7.31,7.31,0,0,1-.89.2V98.65c4.56,2.14,9,3.76,13.31,6.32Q507.33,138,527,238.11c.83,4.18,1.08,8.7,1.71,13,.68,4.84,1.68,9.56,2.22,14.45a385.16,385.16,0,0,1,1.46,60.8C532.23,328.63,531.78,329.23,530.61,329.23ZM465.73,301h39.18c-4.62-46.77-17.61-104.12-39.18-130.75Z"/><path class="cls-3" d="M349.34,304.85c-.08-57.41,13.94-101.85,39.68-135v269C363.42,406,349.42,361.86,349.34,304.85Z"/></svg>