<svg id="Layer_1" data-name="Layer 1" xmlns="http://www.w3.org/2000/svg" viewBox="0 0 491.51 150.77"><defs><style>.cls-1{fill:#fff;}.cls-2{fill:#abff5a;}</style></defs><path class="cls-1" d="M273.36,284.2a18.86,18.86,0,0,1,7.71,7.41,23.51,23.51,0,0,1,0,22,18.76,18.76,0,0,1-7.74,7.44,24.54,24.54,0,0,1-11.61,2.64H245.94V281.56h15.78A24.5,24.5,0,0,1,273.36,284.2Zm-3.24,27.42q3.24-3.18,3.24-9t-3.24-9.06q-3.24-3.24-9.06-3.24H256.2V314.8h4.86Q266.88,314.8,270.12,311.62Z" transform="translate(-54.24 -224.62)"/><path class="cls-1" d="M320.94,309.4H297.72a7,7,0,0,0,2,4.77,6.14,6.14,0,0,0,4.35,1.65,5.39,5.39,0,0,0,5.34-3.24h10.92a15,15,0,0,1-3,5.94,15.17,15.17,0,0,1-5.49,4.14,17.63,17.63,0,0,1-7.38,1.5,18,18,0,0,1-8.76-2.1,14.94,14.94,0,0,1-6-6,18.52,18.52,0,0,1-2.16-9.12,18.73,18.73,0,0,1,2.13-9.12,14.74,14.74,0,0,1,6-6,18.08,18.08,0,0,1,8.82-2.1,17.9,17.9,0,0,1,8.64,2,14.65,14.65,0,0,1,5.91,5.82,17.67,17.67,0,0,1,2.13,8.82A26.19,26.19,0,0,1,320.94,309.4Zm-10.32-5.7a5.28,5.28,0,0,0-1.8-4.2,6.63,6.63,0,0,0-4.5-1.56,6.5,6.5,0,0,0-4.35,1.5,6.66,6.66,0,0,0-2.19,4.26Z" transform="translate(-54.24 -224.62)"/><path class="cls-1" d="M343.32,298.72H337.8v25H327.54v-25h-3.72V290.2h3.72v-1q0-6.18,3.54-9.39t10.38-3.21q1.14,0,1.68.06v8.7q-2.94-.18-4.14.84t-1.2,3.66v.3h5.52Z" transform="translate(-54.24 -224.62)"/><path class="cls-2" d="M378.54,301.81a12.35,12.35,0,0,1-5.16,4.89,18.17,18.17,0,0,1-8.64,1.86h-6.36v15.12H348.12V281.56h16.62a18.91,18.91,0,0,1,8.52,1.74,12,12,0,0,1,5.22,4.8,14,14,0,0,1,1.74,7A13.56,13.56,0,0,1,378.54,301.81ZM368.34,299a6,6,0,0,0,0-7.8,6.12,6.12,0,0,0-4.38-1.38h-5.58V300.4H364A6.12,6.12,0,0,0,368.34,299Z" transform="translate(-54.24 -224.62)"/><path class="cls-2" d="M400.32,291.43a11.6,11.6,0,0,1,6-1.59V300.7H403.5q-3.84,0-5.76,1.65t-1.92,5.79v15.54H385.56V290.2h10.26v5.58A13.53,13.53,0,0,1,400.32,291.43Z" transform="translate(-54.24 -224.62)"/><path class="cls-2" d="M417.63,322.06a15.38,15.38,0,0,1-6.18-6,19.43,19.43,0,0,1,0-18.21,15.47,15.47,0,0,1,6.24-6,19.82,19.82,0,0,1,17.76,0,15.47,15.47,0,0,1,6.24,6,17.78,17.78,0,0,1,2.28,9.09,17.6,17.6,0,0,1-2.31,9.09,15.62,15.62,0,0,1-6.3,6,18.83,18.83,0,0,1-8.91,2.1A18.48,18.48,0,0,1,417.63,322.06Zm13.86-8.94a8.58,8.58,0,0,0,2.07-6.18,8.74,8.74,0,0,0-2-6.18,6.82,6.82,0,0,0-9.93,0q-2,2.13-2,6.21a8.91,8.91,0,0,0,1.95,6.18,6.31,6.31,0,0,0,4.89,2.16A6.68,6.68,0,0,0,431.49,313.12Z" transform="translate(-54.24 -224.62)"/><path class="cls-2" d="M502.11,293.62q3.69,3.78,3.69,10.5v19.56H495.6V305.5a6.92,6.92,0,0,0-1.71-5,7.15,7.15,0,0,0-9.42,0,6.92,6.92,0,0,0-1.71,5v18.18h-10.2V305.5a6.92,6.92,0,0,0-1.71-5,7.15,7.15,0,0,0-9.42,0,6.92,6.92,0,0,0-1.71,5v18.18H449.46V290.2h10.26v4.2a11,11,0,0,1,4.08-3.33,12.83,12.83,0,0,1,5.7-1.23,13.87,13.87,0,0,1,6.75,1.62,11.61,11.61,0,0,1,4.65,4.62,13.49,13.49,0,0,1,4.74-4.5,12.81,12.81,0,0,1,6.54-1.74Q498.42,289.84,502.11,293.62Z" transform="translate(-54.24 -224.62)"/><path class="cls-2" d="M519.39,322.06a15.34,15.34,0,0,1-6.19-6,17.93,17.93,0,0,1-2.25-9.12,17.69,17.69,0,0,1,2.29-9.09,15.35,15.35,0,0,1,6.24-6,19.82,19.82,0,0,1,17.76,0,15.6,15.6,0,0,1,6.24,6,17.88,17.88,0,0,1,2.28,9.09,17.7,17.7,0,0,1-2.31,9.09,15.68,15.68,0,0,1-6.3,6,18.89,18.89,0,0,1-8.91,2.1A18.42,18.42,0,0,1,519.39,322.06Zm13.85-8.94a8.58,8.58,0,0,0,2.08-6.18,8.74,8.74,0,0,0-2-6.18,6.83,6.83,0,0,0-9.94,0q-2,2.13-2,6.21a8.87,8.87,0,0,0,2,6.18,6.3,6.3,0,0,0,4.89,2.16A6.68,6.68,0,0,0,533.24,313.12Z" transform="translate(-54.24 -224.62)"/><path class="cls-1" d="M141.38,361.54c-1.68-1.3-3.36-2.59-5-3.9l-32.78-25.75a39.42,39.42,0,0,0-17.65-7.83,2.73,2.73,0,0,1-2.57-2.65,113.6,113.6,0,0,1-1.72-26.79c.31-5.22,1.2-10.4,2-15.58a2.77,2.77,0,0,1,1.63-1.93c8.46-1.37,15.4-5.62,22-10.88,11.08-8.9,22.34-17.58,33.53-26.34a1.48,1.48,0,0,1,.77-.3c-11.61,18.65-15.92,39.19-16,60.82S129.9,342.64,141.38,361.54Z" transform="translate(-54.24 -224.62)"/><path class="cls-1" d="M73.81,277.43c-3.4,15.49-2.92,30.48-.19,45.78a21,21,0,0,1-8.15-.61c-6.47-1.8-11.55-6.8-11.21-14.67.22-5,.2-10.11,0-15.16-.32-8.57,5.94-13.28,12-14.6A66,66,0,0,1,73.81,277.43Z" transform="translate(-54.24 -224.62)"/><path class="cls-1" d="M56,328.55a14.78,14.78,0,0,1,1.43.56,30.9,30.9,0,0,0,14.93,3.64c1.68,0,2.33.44,2.29,2.23-.1,5.3,0,10.6,0,15.9,0,5-2.65,7.61-7.58,7.66-1.58,0-3.16.07-4.73,0-3.69-.26-6.42-2.77-6.49-6.41-.15-7.57-.06-15.14,0-22.71A3.66,3.66,0,0,1,56,328.55Z" transform="translate(-54.24 -224.62)"/><path class="cls-2" d="M178.09,224.62c-23.05,0-41.75,33.74-41.75,75.38s18.7,75.38,41.75,75.38,41.76-33.74,41.76-75.38S201.16,224.62,178.09,224.62ZM175,236.13q0,13,0,26.06v.11c0,8.74,0,17.47,0,26.2v.14c0,8.68,0,17.37,0,26.06v53.16c-13.58-3.45-29.26-26.14-30.48-62.08-1.31-38.49,14.33-66.21,30.48-70.87Zm36.8,73.34c-5.74,0-11.48.08-17.22-.12a19.41,19.41,0,0,0-2.4.07c-.42,0-.88,0-1.44,0v1.67q0,25.39,0,50.76c0,1-.16,1.42-.65,1.8a28.55,28.55,0,0,1-7.79,4.28,1.87,1.87,0,0,1-.28.07V234.76a47.17,47.17,0,0,1,4.31,2q17.92,10.72,24.28,43.15c.27,1.35.35,2.82.56,4.22.22,1.56.54,3.09.72,4.68a125.63,125.63,0,0,1,.47,19.7C212.3,309.28,212.15,309.47,211.77,309.47Zm-21-9.15h12.7c-1.5-15.16-5.71-33.74-12.7-42.37Z" transform="translate(-54.24 -224.62)"/><path class="cls-2" d="M153,301.57c0-18.6,4.51-33,12.86-43.74V345C157.6,334.34,153.06,320.05,153,301.57Z" transform="translate(-54.24 -224.62)"/></svg>